<svg width="684" height="167" viewBox="0 0 684 167" fill="none" xmlns="http://www.w3.org/2000/svg">
<path d="M7.59967 139.153L25.028 52.4659L56.0605 52.0371L78.9466 133.74L67.6049 136.526L57.1909 116.007L23.4534 121.39L20.5082 140.099L7.59967 139.153ZM31.8639 68.1216L25.0053 111.388L53.8697 109.455L32.885 68.0442L31.8639 68.1216ZM139.316 62.0237C140.933 61.901 142.527 62.0369 144.097 62.4312C148.837 67.3775 152.509 76.2986 155.113 89.1946C157.711 102.005 159.494 114.792 160.462 127.556L137.634 131.213C136.149 111.643 134.073 93.8716 131.407 77.8995C120.406 82.9274 114.199 100.942 112.786 131.943L100.237 134.05L88.9251 71.238L115.919 64.954L114.815 87.6305L115.964 87.5433C118.806 79.8824 122.239 73.8026 126.262 69.3041C130.285 64.8055 134.637 62.3787 139.316 62.0237ZM283.359 33.5095L284.262 118.164L272.92 120.95L226.377 55.6756L225.356 55.7531L230.783 122.221L218.068 123.827L215.172 39.9662L245.914 35.7084L273.082 97.7029L274.103 97.6255L270.644 35.116L283.359 33.5095ZM356.684 89.0499C357.387 98.3246 355.858 105.244 352.097 109.808C348.414 114.281 341.127 116.931 330.236 117.757C319.344 118.583 310.648 116.761 304.147 112.291C302.406 106.261 301.303 100.183 300.839 94.0568C300.374 87.9304 300.789 82.1223 302.084 76.6326C303.458 71.0514 305.318 66.2462 307.665 62.2171C312.602 53.9693 317.16 48.6172 321.338 46.1608C329.823 49.7105 337.442 54.8234 344.196 61.4996C351.682 68.8049 355.845 77.9883 356.684 89.0499ZM341.617 86.727C341.004 78.6436 338.74 71.3699 334.827 64.9061C328.048 69.1858 322.652 75.329 318.638 83.3355C314.625 91.3421 312.915 99.2595 313.509 107.088C316.27 107.392 320.204 107.35 325.309 106.963C330.414 106.575 335.579 105.285 340.804 103.091C341.772 97.7976 342.043 92.3429 341.617 86.727ZM408.78 93.6983C411.618 89.3752 413.452 84.786 414.282 79.9306C415.112 75.0753 415.394 70.9033 415.13 67.4146C414.858 63.8409 413.825 56.9874 412.029 46.8542L439.023 40.5702L435.88 107.432L423.332 109.539L418.939 85.4822L418.046 85.55C413.027 102.875 403.626 112.061 389.842 113.107C387.799 113.261 386.072 113.05 384.659 112.473C379.919 107.526 376.263 98.8181 373.691 86.3476C371.113 73.792 369.346 61.2176 368.39 48.6245L393.772 44.7734C393.37 59.7802 393.45 70.9849 394.011 78.3876C394.573 85.7904 395.814 93.6977 397.736 102.11C402.339 100.734 406.02 97.9299 408.78 93.6983ZM495.074 102.171L512.502 15.4839L543.535 15.0551L566.421 96.758L555.079 99.5439L544.665 79.0249L510.928 84.4085L507.982 103.117L495.074 102.171ZM519.338 31.1396L512.479 74.4064L541.344 72.4734L520.359 31.0622L519.338 31.1396ZM608.927 100.979C606.51 108.607 603.792 113.948 600.772 117.001C597.843 120.133 593.741 121.899 588.465 122.3C583.275 122.693 578.152 121.156 573.096 117.689L576.432 110.889C579.317 111.697 582.419 111.975 585.737 111.724C589.141 111.465 592.12 110.127 594.675 107.708C597.23 105.289 598.719 101.796 599.143 97.228L567.853 35.0328L594.847 28.7488L606.989 77.1209L608.01 77.0434L620.785 27.166L631.336 29.1897L608.927 100.979ZM656.036 88.419C653.558 86.2108 652.196 83.49 651.951 80.2566C651.705 77.0232 652.644 74.1707 654.767 71.699C656.969 69.1358 659.687 67.7315 662.92 67.4862C666.153 67.2409 669.009 68.2224 671.487 70.4305C674.044 72.5472 675.445 75.2222 675.69 78.4556C675.936 81.689 674.957 84.5873 672.756 87.1505C670.633 89.6222 667.954 90.9807 664.721 91.226C661.488 91.4713 658.593 90.5356 656.036 88.419ZM671.109 1.14065L674.942 5.98455L667.661 58.911L656.389 60.9215L648.317 6.97751L671.109 1.14065Z" fill="black"/>
</svg>
