<svg width="150" height="150" viewBox="0 0 150 150" fill="none" xmlns="http://www.w3.org/2000/svg">
<path d="M75 12.5C109.463 12.5 137.5 40.5375 137.5 75C137.5 109.463 109.463 137.5 75 137.5C40.5375 137.5 12.5 109.463 12.5 75C12.5 40.5375 40.5375 12.5 75 12.5ZM75 0C33.5812 0 0 33.5812 0 75C0 116.419 33.5812 150 75 150C116.419 150 150 116.419 150 75C150 33.5812 116.419 0 75 0ZM85.05 59.225L75 25L64.9313 59.2313C62.25 60.95 60.0875 63.3437 58.5625 66.15L25 75L58.5625 83.85C60.0812 86.6562 62.2437 89.0563 64.9313 90.7687L75 125L85.1125 90.7562C87.7875 89.0375 89.9313 86.6375 91.45 83.825L125 75L91.45 66.1687C89.925 63.3438 87.75 60.9437 85.05 59.225ZM75 84.375C69.825 84.375 65.625 80.175 65.625 75C65.625 69.825 69.825 65.625 75 65.625C80.175 65.625 84.375 69.825 84.375 75C84.375 80.175 80.175 84.375 75 84.375ZM107.812 107.812L91.7312 97.5687C93.9563 95.9187 95.9188 93.95 97.575 91.7312L107.812 107.812ZM91.3063 52.1187L107.806 42.1937L97.8812 58.6875C96.0687 56.1438 93.85 53.9312 91.3063 52.1187ZM58.7125 97.9L42.1875 107.812L52.1187 91.3063C53.9312 93.8563 56.1562 96.0812 58.7125 97.9ZM52.4313 58.275L42.1937 42.1937L58.275 52.4313C56.0438 54.0812 54.075 56.05 52.4313 58.275Z" fill="black"/>
</svg>
